{"accessors" : [{"bufferView" : 0, "byteOffset" : 0, "componentType" : 5123, "count" : 2811, "type" : "SCALAR", "max" : [2810], "min" : [0]}, {"bufferView" : 1, "byteOffset" : 0, "componentType" : 5126, "count" : 2811, "type" : "VEC3", "max" : [0.36259904503822327, 10.899999618530273, 7.989780426025391], "min" : [-0.680737316608429, -3.6336018638394307E-07, -0.27911514043807983], "name" : "POSITION"}, {"bufferView" : 1, "byteOffset" : 12, "componentType" : 5126, "count" : 2811, "type" : "VEC3", "max" : [1.0000044107437134, 1.0000044107437134, 1.0000044107437134], "min" : [-1.0000044107437134, -1.0000044107437134, -1.0000044107437134], "name" : "NORMAL"}, {"bufferView" : 1, "byteOffset" : 24, "componentType" : 5126, "count" : 2811, "type" : "VEC2", "max" : [0.9915789365768433, -0.00810273177921772], "min" : [0.00893556047230959, -0.9932237863540649], "name" : "TEXCOORD_0"}], "asset" : {"generator" : "Aspose.3D 22.1", "version" : "2.0"}, "buffers" : [{"uri" : "data:application/octet-stream;base64,", "byteLength" : 95584}], "bufferViews" : [{"buffer" : 0, "byteOffset" : 0, "byteLength" : 5624, "target" : 34963}, {"buffer" : 0, "byteOffset" : 5628, "byteLength" : 89952, "byteStride" : 32, "target" : 34962}], "materials" : [{"name" : "", "pbrMetallicRoughness" : {"baseColorFactor" : [0.800000011920929, 0.800000011920929, 0.800000011920929, 1], "metallicFactor" : 0, "roughnessFactor" : 0}, "emissiveFactor" : [0, 0, 0], "alphaMode" : "OPAQUE", "doubleSided" : false}], "meshes" : [{"primitives" : [{"attributes" : {"POSITION" : 1, "NORMAL" : 2, "TEXCOORD_0" : 3}, "indices" : 0, "material" : 0, "mode" : 4}], "name" : "Cube.006"}], "nodes" : [{"matrix" : [1, 0, 0, 0, 0, 1, 0, 0, 0, 0, 1, 0, 0.16857242584228516, 0, -3.839705467224121, 1], "mesh" : 0, "name" : "WalletPlain"}], "scene" : 0, "scenes" : [{"nodes" : [0]}]}